<?xml version="1.0" encoding="UTF-8" standalone="no"?><!DOCTYPE svg PUBLIC "-//W3C//DTD SVG 1.1//EN" "http://www.w3.org/Graphics/SVG/1.1/DTD/svg11.dtd"><svg width="100%" height="100%" viewBox="0 0 100 118" version="1.1" xmlns="http://www.w3.org/2000/svg" xmlns:xlink="http://www.w3.org/1999/xlink" xml:space="preserve" style="fill-rule:evenodd;clip-rule:evenodd;stroke-linecap:round;stroke-linejoin:round;stroke-miterlimit:1.41421;"><g><path d="M42.124,46.14l4.05,-1.079c0,0 0.512,2.339 3.51,2.339c2.997,0 3.509,-2.339 3.509,-2.339l4.05,1.079c0,0 -0.007,2.968 0.045,6.525l-0.045,5.481l0.045,13.822l-15.209,0l0.117,-19.419c-0.064,-3.339 -0.072,-6.409 -0.072,-6.409Z" style="fill:#fff;fill-rule:nonzero;stroke:#fff;stroke-width:1.17px;"/><path d="M57.288,52.665l2.567,4.005l3.849,-2.378c0,0 -2.297,-3.763 -3.696,-6.094c-0.875,-1.458 -2.765,-2.058 -2.765,-2.058" style="fill:#fff;fill-rule:nonzero;stroke:#fff;stroke-width:1.17px;"/><path d="M42.31,52.665l-2.659,4.005l-3.988,-2.378c0,0 2.379,-3.763 3.829,-6.094c0.907,-1.458 2.864,-2.058 2.864,-2.058" style="fill:#fff;fill-rule:nonzero;stroke:#fff;stroke-width:1.19px;"/><path d="M46.174,45.061c0,0 1.24,-0.585 3.51,-0.585c2.27,0 3.509,0.585 3.509,0.585" style="fill:#fff;fill-rule:nonzero;stroke:#fff;stroke-width:1.17px;"/></g></svg>